<svg xmlns="http://www.w3.org/2000/svg" xmlns:xlink="http://www.w3.org/1999/xlink" width="1920" zoomAndPan="magnify" viewBox="0 0 1440 809.999993" height="1080" preserveAspectRatio="xMidYMid meet" version="1.0"><defs><filter x="0%" y="0%" width="100%" height="100%" id="807a01139d"><feColorMatrix values="0 0 0 0 1 0 0 0 0 1 0 0 0 0 1 0 0 0 1 0" color-interpolation-filters="sRGB"/></filter><g/><mask id="790ee77282"><g filter="url(#807a01139d)"><rect x="-144" width="1728" fill="#000000" y="-80.999999" height="971.999992" fill-opacity="0.4"/></g></mask><clipPath id="934e3c2ab9"><path d="M 11 15 L 301 15 L 301 247 L 11 247 Z M 11 15 " clip-rule="nonzero"/></clipPath><clipPath id="1ec17a57e4"><path d="M 0.996094 93.0625 L 243.496094 0.851562 L 311.675781 180.160156 L 69.179688 272.367188 Z M 0.996094 93.0625 " clip-rule="nonzero"/></clipPath><clipPath id="1788537150"><path d="M 0.996094 93.0625 L 243.496094 0.851562 L 311.675781 180.160156 L 69.179688 272.367188 Z M 0.996094 93.0625 " clip-rule="nonzero"/></clipPath><clipPath id="f8324abc08"><rect x="0" width="312" y="0" height="272"/></clipPath><clipPath id="c9c9f14353"><path d="M 0 116.546875 L 576 116.546875 L 576 693.730469 L 0 693.730469 Z M 0 116.546875 " clip-rule="nonzero"/></clipPath><mask id="51b09449be"><g filter="url(#807a01139d)"><rect x="-144" width="1728" fill="#000000" y="-80.999999" height="971.999992" fill-opacity="0.1176"/></g></mask><clipPath id="65eb339c39"><path d="M 1 1 L 70 1 L 70 41.679688 L 1 41.679688 Z M 1 1 " clip-rule="nonzero"/></clipPath><clipPath id="640011bc72"><rect x="0" width="71" y="0" height="42"/></clipPath><clipPath id="e7e2cccfb4"><path d="M 161 480.046875 L 416 480.046875 L 416 659.203125 L 161 659.203125 Z M 161 480.046875 " clip-rule="nonzero"/></clipPath><clipPath id="ac62e73f9b"><path d="M 413.078125 518.664062 C 413.078125 518.664062 410.589844 501.148438 402.9375 493.382812 C 393.285156 483.230469 382.441406 483.230469 377.375 482.636719 C 341.863281 480.046875 288.449219 480.046875 288.449219 480.046875 L 288.351562 480.046875 C 288.351562 480.046875 234.9375 480.046875 199.230469 482.636719 C 194.257812 483.230469 183.414062 483.230469 173.667969 493.382812 C 166.105469 501.148438 163.621094 518.664062 163.621094 518.664062 C 163.621094 518.664062 161.035156 539.367188 161.035156 559.96875 L 161.035156 579.28125 C 161.035156 599.882812 163.621094 620.484375 163.621094 620.484375 C 163.621094 620.484375 166.105469 638.003906 173.765625 645.765625 C 183.414062 655.917969 196.144531 655.621094 201.816406 656.613281 C 222.207031 658.605469 288.351562 659.203125 288.351562 659.203125 C 288.351562 659.203125 341.863281 659.101562 377.476562 656.515625 C 382.441406 655.917969 393.285156 655.917969 403.027344 645.765625 C 410.691406 638.003906 413.175781 620.484375 413.175781 620.484375 C 413.175781 620.484375 415.765625 599.882812 415.765625 579.28125 L 415.765625 559.96875 C 415.664062 539.367188 413.078125 518.664062 413.078125 518.664062 Z M 262.089844 602.667969 L 262.089844 531.105469 L 330.917969 567.035156 Z M 262.089844 602.667969 " clip-rule="nonzero"/></clipPath><linearGradient x1="0.4998" gradientTransform="matrix(254.730258, 0, 0, 179.154938, 161.034459, 480.047376)" y1="-0.0000000223381" x2="0.4998" gradientUnits="userSpaceOnUse" y2="1" id="b0e59b0a28"><stop stop-opacity="1" stop-color="rgb(39.99939%, 69.799805%, 69.799805%)" offset="0"/><stop stop-opacity="1" stop-color="rgb(39.842224%, 69.682312%, 69.682312%)" offset="0.0078125"/><stop stop-opacity="1" stop-color="rgb(39.529419%, 69.450378%, 69.450378%)" offset="0.015625"/><stop stop-opacity="1" stop-color="rgb(39.21814%, 69.216919%, 69.216919%)" offset="0.0234375"/><stop stop-opacity="1" stop-color="rgb(38.905334%, 68.984985%, 68.984985%)" offset="0.03125"/><stop stop-opacity="1" stop-color="rgb(38.592529%, 68.751526%, 68.751526%)" offset="0.0390625"/><stop stop-opacity="1" stop-color="rgb(38.279724%, 68.518066%, 68.518066%)" offset="0.046875"/><stop stop-opacity="1" stop-color="rgb(37.968445%, 68.286133%, 68.286133%)" offset="0.0546875"/><stop stop-opacity="1" stop-color="rgb(37.65564%, 68.052673%, 68.052673%)" offset="0.0625"/><stop stop-opacity="1" stop-color="rgb(37.342834%, 67.82074%, 67.82074%)" offset="0.0703125"/><stop stop-opacity="1" stop-color="rgb(37.031555%, 67.58728%, 67.58728%)" offset="0.078125"/><stop stop-opacity="1" stop-color="rgb(36.71875%, 67.355347%, 67.355347%)" offset="0.0859375"/><stop stop-opacity="1" stop-color="rgb(36.405945%, 67.121887%, 67.121887%)" offset="0.09375"/><stop stop-opacity="1" stop-color="rgb(36.09314%, 66.889954%, 66.889954%)" offset="0.101563"/><stop stop-opacity="1" stop-color="rgb(35.78186%, 66.656494%, 66.656494%)" offset="0.109375"/><stop stop-opacity="1" stop-color="rgb(35.469055%, 66.424561%, 66.424561%)" offset="0.117188"/><stop stop-opacity="1" stop-color="rgb(35.15625%, 66.191101%, 66.191101%)" offset="0.125"/><stop stop-opacity="1" stop-color="rgb(34.843445%, 65.959167%, 65.959167%)" offset="0.132812"/><stop stop-opacity="1" stop-color="rgb(34.532166%, 65.725708%, 65.725708%)" offset="0.140625"/><stop stop-opacity="1" stop-color="rgb(34.21936%, 65.493774%, 65.493774%)" offset="0.148438"/><stop stop-opacity="1" stop-color="rgb(33.906555%, 65.260315%, 65.260315%)" offset="0.15625"/><stop stop-opacity="1" stop-color="rgb(33.59375%, 65.026855%, 65.026855%)" offset="0.164063"/><stop stop-opacity="1" stop-color="rgb(33.282471%, 64.794922%, 64.794922%)" offset="0.171875"/><stop stop-opacity="1" stop-color="rgb(32.969666%, 64.561462%, 64.561462%)" offset="0.179688"/><stop stop-opacity="1" stop-color="rgb(32.65686%, 64.329529%, 64.329529%)" offset="0.1875"/><stop stop-opacity="1" stop-color="rgb(32.344055%, 64.096069%, 64.096069%)" offset="0.195313"/><stop stop-opacity="1" stop-color="rgb(32.032776%, 63.864136%, 63.864136%)" offset="0.203125"/><stop stop-opacity="1" stop-color="rgb(31.719971%, 63.630676%, 63.630676%)" offset="0.210938"/><stop stop-opacity="1" stop-color="rgb(31.407166%, 63.398743%, 63.398743%)" offset="0.21875"/><stop stop-opacity="1" stop-color="rgb(31.09436%, 63.165283%, 63.165283%)" offset="0.226562"/><stop stop-opacity="1" stop-color="rgb(30.783081%, 62.93335%, 62.93335%)" offset="0.234375"/><stop stop-opacity="1" stop-color="rgb(30.470276%, 62.69989%, 62.69989%)" offset="0.242188"/><stop stop-opacity="1" stop-color="rgb(30.157471%, 62.467957%, 62.467957%)" offset="0.25"/><stop stop-opacity="1" stop-color="rgb(29.846191%, 62.234497%, 62.234497%)" offset="0.257812"/><stop stop-opacity="1" stop-color="rgb(29.533386%, 62.002563%, 62.002563%)" offset="0.265625"/><stop stop-opacity="1" stop-color="rgb(29.220581%, 61.769104%, 61.769104%)" offset="0.273438"/><stop stop-opacity="1" stop-color="rgb(28.907776%, 61.53717%, 61.53717%)" offset="0.28125"/><stop stop-opacity="1" stop-color="rgb(28.596497%, 61.303711%, 61.303711%)" offset="0.289062"/><stop stop-opacity="1" stop-color="rgb(28.283691%, 61.070251%, 61.070251%)" offset="0.296875"/><stop stop-opacity="1" stop-color="rgb(27.970886%, 60.838318%, 60.838318%)" offset="0.304687"/><stop stop-opacity="1" stop-color="rgb(27.658081%, 60.604858%, 60.604858%)" offset="0.3125"/><stop stop-opacity="1" stop-color="rgb(27.346802%, 60.372925%, 60.372925%)" offset="0.320312"/><stop stop-opacity="1" stop-color="rgb(27.033997%, 60.139465%, 60.139465%)" offset="0.328125"/><stop stop-opacity="1" stop-color="rgb(26.721191%, 59.907532%, 59.907532%)" offset="0.335938"/><stop stop-opacity="1" stop-color="rgb(26.408386%, 59.674072%, 59.674072%)" offset="0.34375"/><stop stop-opacity="1" stop-color="rgb(26.097107%, 59.442139%, 59.442139%)" offset="0.351563"/><stop stop-opacity="1" stop-color="rgb(25.784302%, 59.208679%, 59.208679%)" offset="0.359375"/><stop stop-opacity="1" stop-color="rgb(25.471497%, 58.976746%, 58.976746%)" offset="0.367188"/><stop stop-opacity="1" stop-color="rgb(25.158691%, 58.743286%, 58.743286%)" offset="0.375"/><stop stop-opacity="1" stop-color="rgb(24.847412%, 58.511353%, 58.511353%)" offset="0.382813"/><stop stop-opacity="1" stop-color="rgb(24.534607%, 58.277893%, 58.277893%)" offset="0.390625"/><stop stop-opacity="1" stop-color="rgb(24.221802%, 58.045959%, 58.045959%)" offset="0.398438"/><stop stop-opacity="1" stop-color="rgb(23.908997%, 57.8125%, 57.8125%)" offset="0.40625"/><stop stop-opacity="1" stop-color="rgb(23.597717%, 57.580566%, 57.580566%)" offset="0.414062"/><stop stop-opacity="1" stop-color="rgb(23.284912%, 57.347107%, 57.347107%)" offset="0.421875"/><stop stop-opacity="1" stop-color="rgb(22.972107%, 57.113647%, 57.113647%)" offset="0.429688"/><stop stop-opacity="1" stop-color="rgb(22.660828%, 56.881714%, 56.881714%)" offset="0.4375"/><stop stop-opacity="1" stop-color="rgb(22.348022%, 56.648254%, 56.648254%)" offset="0.445312"/><stop stop-opacity="1" stop-color="rgb(22.035217%, 56.416321%, 56.416321%)" offset="0.453125"/><stop stop-opacity="1" stop-color="rgb(21.722412%, 56.182861%, 56.182861%)" offset="0.460938"/><stop stop-opacity="1" stop-color="rgb(21.411133%, 55.950928%, 55.950928%)" offset="0.46875"/><stop stop-opacity="1" stop-color="rgb(21.098328%, 55.717468%, 55.717468%)" offset="0.476562"/><stop stop-opacity="1" stop-color="rgb(20.785522%, 55.485535%, 55.485535%)" offset="0.484375"/><stop stop-opacity="1" stop-color="rgb(20.472717%, 55.252075%, 55.252075%)" offset="0.492187"/><stop stop-opacity="1" stop-color="rgb(20.161438%, 55.020142%, 55.020142%)" offset="0.5"/><stop stop-opacity="1" stop-color="rgb(19.848633%, 54.786682%, 54.786682%)" offset="0.507812"/><stop stop-opacity="1" stop-color="rgb(19.535828%, 54.554749%, 54.554749%)" offset="0.515625"/><stop stop-opacity="1" stop-color="rgb(19.223022%, 54.321289%, 54.321289%)" offset="0.523438"/><stop stop-opacity="1" stop-color="rgb(18.911743%, 54.089355%, 54.089355%)" offset="0.53125"/><stop stop-opacity="1" stop-color="rgb(18.598938%, 53.855896%, 53.855896%)" offset="0.539062"/><stop stop-opacity="1" stop-color="rgb(18.286133%, 53.623962%, 53.623962%)" offset="0.546875"/><stop stop-opacity="1" stop-color="rgb(17.973328%, 53.390503%, 53.390503%)" offset="0.554687"/><stop stop-opacity="1" stop-color="rgb(17.662048%, 53.157043%, 53.157043%)" offset="0.5625"/><stop stop-opacity="1" stop-color="rgb(17.349243%, 52.92511%, 52.92511%)" offset="0.570312"/><stop stop-opacity="1" stop-color="rgb(17.036438%, 52.69165%, 52.69165%)" offset="0.578125"/><stop stop-opacity="1" stop-color="rgb(16.725159%, 52.459717%, 52.459717%)" offset="0.585938"/><stop stop-opacity="1" stop-color="rgb(16.412354%, 52.226257%, 52.226257%)" offset="0.59375"/><stop stop-opacity="1" stop-color="rgb(16.099548%, 51.994324%, 51.994324%)" offset="0.601562"/><stop stop-opacity="1" stop-color="rgb(15.786743%, 51.760864%, 51.760864%)" offset="0.609375"/><stop stop-opacity="1" stop-color="rgb(15.475464%, 51.528931%, 51.528931%)" offset="0.617187"/><stop stop-opacity="1" stop-color="rgb(15.162659%, 51.295471%, 51.295471%)" offset="0.625"/><stop stop-opacity="1" stop-color="rgb(14.849854%, 51.063538%, 51.063538%)" offset="0.632812"/><stop stop-opacity="1" stop-color="rgb(14.537048%, 50.830078%, 50.830078%)" offset="0.640625"/><stop stop-opacity="1" stop-color="rgb(14.225769%, 50.598145%, 50.598145%)" offset="0.648438"/><stop stop-opacity="1" stop-color="rgb(13.912964%, 50.364685%, 50.364685%)" offset="0.65625"/><stop stop-opacity="1" stop-color="rgb(13.600159%, 50.132751%, 50.132751%)" offset="0.664062"/><stop stop-opacity="1" stop-color="rgb(13.287354%, 49.899292%, 49.899292%)" offset="0.671875"/><stop stop-opacity="1" stop-color="rgb(12.976074%, 49.665833%, 49.665833%)" offset="0.679688"/><stop stop-opacity="1" stop-color="rgb(12.663269%, 49.433899%, 49.433899%)" offset="0.6875"/><stop stop-opacity="1" stop-color="rgb(12.350464%, 49.200439%, 49.200439%)" offset="0.695312"/><stop stop-opacity="1" stop-color="rgb(12.037659%, 48.968506%, 48.968506%)" offset="0.703125"/><stop stop-opacity="1" stop-color="rgb(11.726379%, 48.735046%, 48.735046%)" offset="0.710938"/><stop stop-opacity="1" stop-color="rgb(11.413574%, 48.503113%, 48.503113%)" offset="0.71875"/><stop stop-opacity="1" stop-color="rgb(11.100769%, 48.269653%, 48.269653%)" offset="0.726562"/><stop stop-opacity="1" stop-color="rgb(10.787964%, 48.03772%, 48.03772%)" offset="0.734375"/><stop stop-opacity="1" stop-color="rgb(10.476685%, 47.80426%, 47.80426%)" offset="0.742188"/><stop stop-opacity="1" stop-color="rgb(10.163879%, 47.572327%, 47.572327%)" offset="0.75"/><stop stop-opacity="1" stop-color="rgb(9.851074%, 47.338867%, 47.338867%)" offset="0.757813"/><stop stop-opacity="1" stop-color="rgb(9.539795%, 47.106934%, 47.106934%)" offset="0.765625"/><stop stop-opacity="1" stop-color="rgb(9.22699%, 46.873474%, 46.873474%)" offset="0.773438"/><stop stop-opacity="1" stop-color="rgb(8.914185%, 46.641541%, 46.641541%)" offset="0.78125"/><stop stop-opacity="1" stop-color="rgb(8.601379%, 46.408081%, 46.408081%)" offset="0.789062"/><stop stop-opacity="1" stop-color="rgb(8.2901%, 46.176147%, 46.176147%)" offset="0.796875"/><stop stop-opacity="1" stop-color="rgb(7.977295%, 45.942688%, 45.942688%)" offset="0.804688"/><stop stop-opacity="1" stop-color="rgb(7.66449%, 45.709229%, 45.709229%)" offset="0.8125"/><stop stop-opacity="1" stop-color="rgb(7.351685%, 45.477295%, 45.477295%)" offset="0.820313"/><stop stop-opacity="1" stop-color="rgb(7.040405%, 45.243835%, 45.243835%)" offset="0.828125"/><stop stop-opacity="1" stop-color="rgb(6.7276%, 45.011902%, 45.011902%)" offset="0.835938"/><stop stop-opacity="1" stop-color="rgb(6.414795%, 44.778442%, 44.778442%)" offset="0.84375"/><stop stop-opacity="1" stop-color="rgb(6.10199%, 44.546509%, 44.546509%)" offset="0.851562"/><stop stop-opacity="1" stop-color="rgb(5.79071%, 44.313049%, 44.313049%)" offset="0.859375"/><stop stop-opacity="1" stop-color="rgb(5.477905%, 44.081116%, 44.081116%)" offset="0.867188"/><stop stop-opacity="1" stop-color="rgb(5.1651%, 43.847656%, 43.847656%)" offset="0.875"/><stop stop-opacity="1" stop-color="rgb(4.852295%, 43.615723%, 43.615723%)" offset="0.882812"/><stop stop-opacity="1" stop-color="rgb(4.541016%, 43.382263%, 43.382263%)" offset="0.890625"/><stop stop-opacity="1" stop-color="rgb(4.22821%, 43.15033%, 43.15033%)" offset="0.898438"/><stop stop-opacity="1" stop-color="rgb(3.915405%, 42.91687%, 42.91687%)" offset="0.90625"/><stop stop-opacity="1" stop-color="rgb(3.6026%, 42.684937%, 42.684937%)" offset="0.914063"/><stop stop-opacity="1" stop-color="rgb(3.291321%, 42.451477%, 42.451477%)" offset="0.921875"/><stop stop-opacity="1" stop-color="rgb(2.978516%, 42.219543%, 42.219543%)" offset="0.929687"/><stop stop-opacity="1" stop-color="rgb(2.66571%, 41.986084%, 41.986084%)" offset="0.9375"/><stop stop-opacity="1" stop-color="rgb(2.354431%, 41.752625%, 41.752625%)" offset="0.945312"/><stop stop-opacity="1" stop-color="rgb(2.041626%, 41.520691%, 41.520691%)" offset="0.953125"/><stop stop-opacity="1" stop-color="rgb(1.728821%, 41.287231%, 41.287231%)" offset="0.960938"/><stop stop-opacity="1" stop-color="rgb(1.416016%, 41.055298%, 41.055298%)" offset="0.96875"/><stop stop-opacity="1" stop-color="rgb(1.104736%, 40.821838%, 40.821838%)" offset="0.976562"/><stop stop-opacity="1" stop-color="rgb(0.791931%, 40.589905%, 40.589905%)" offset="0.984375"/><stop stop-opacity="1" stop-color="rgb(0.479126%, 40.356445%, 40.356445%)" offset="0.992188"/><stop stop-opacity="1" stop-color="rgb(0.166321%, 40.124512%, 40.124512%)" offset="1"/></linearGradient></defs><g fill="#090e34" fill-opacity="1"><g transform="translate(768.491667, 345.845089)"><g><path d="M 68.46875 0 L 34.796875 0 L 34.796875 -97.125 L 4.34375 -97.125 L 4.34375 -124.671875 L 98.828125 -124.671875 L 98.828125 -97.125 L 68.46875 -97.125 Z M 68.46875 0 "/></g></g></g><g fill="#090e34" fill-opacity="1"><g transform="translate(862.939577, 345.845089)"><g><path d="M 103.78125 -48.515625 C 103.78125 -32.710938 99.53125 -20.390625 91.03125 -11.546875 C 82.53125 -2.710938 70.632812 1.703125 55.34375 1.703125 C 40.675781 1.703125 29.003906 -2.8125 20.328125 -11.84375 C 11.660156 -20.882812 7.328125 -33.109375 7.328125 -48.515625 C 7.328125 -64.265625 11.578125 -76.503906 20.078125 -85.234375 C 28.578125 -93.960938 40.503906 -98.328125 55.859375 -98.328125 C 65.347656 -98.328125 73.726562 -96.304688 81 -92.265625 C 88.28125 -88.234375 93.894531 -82.445312 97.84375 -74.90625 C 101.800781 -67.375 103.78125 -58.578125 103.78125 -48.515625 Z M 41.1875 -48.515625 C 41.1875 -40.222656 42.296875 -33.898438 44.515625 -29.546875 C 46.734375 -25.203125 50.457031 -23.03125 55.6875 -23.03125 C 60.851562 -23.03125 64.503906 -25.203125 66.640625 -29.546875 C 68.773438 -33.898438 69.84375 -40.222656 69.84375 -48.515625 C 69.84375 -56.765625 68.757812 -62.988281 66.59375 -67.1875 C 64.4375 -71.394531 60.742188 -73.5 55.515625 -73.5 C 50.398438 -73.5 46.734375 -71.410156 44.515625 -67.234375 C 42.296875 -63.054688 41.1875 -56.816406 41.1875 -48.515625 Z M 41.1875 -48.515625 "/></g></g></g><g fill="#090e34" fill-opacity="1"><g transform="translate(965.488422, 345.845089)"><g><path d="M 103.78125 -48.515625 C 103.78125 -32.710938 99.53125 -20.390625 91.03125 -11.546875 C 82.53125 -2.710938 70.632812 1.703125 55.34375 1.703125 C 40.675781 1.703125 29.003906 -2.8125 20.328125 -11.84375 C 11.660156 -20.882812 7.328125 -33.109375 7.328125 -48.515625 C 7.328125 -64.265625 11.578125 -76.503906 20.078125 -85.234375 C 28.578125 -93.960938 40.503906 -98.328125 55.859375 -98.328125 C 65.347656 -98.328125 73.726562 -96.304688 81 -92.265625 C 88.28125 -88.234375 93.894531 -82.445312 97.84375 -74.90625 C 101.800781 -67.375 103.78125 -58.578125 103.78125 -48.515625 Z M 41.1875 -48.515625 C 41.1875 -40.222656 42.296875 -33.898438 44.515625 -29.546875 C 46.734375 -25.203125 50.457031 -23.03125 55.6875 -23.03125 C 60.851562 -23.03125 64.503906 -25.203125 66.640625 -29.546875 C 68.773438 -33.898438 69.84375 -40.222656 69.84375 -48.515625 C 69.84375 -56.765625 68.757812 -62.988281 66.59375 -67.1875 C 64.4375 -71.394531 60.742188 -73.5 55.515625 -73.5 C 50.398438 -73.5 46.734375 -71.410156 44.515625 -67.234375 C 42.296875 -63.054688 41.1875 -56.816406 41.1875 -48.515625 Z M 41.1875 -48.515625 "/></g></g></g><g fill="#090e34" fill-opacity="1"><g transform="translate(1068.037261, 345.845089)"><g><path d="M 44.859375 0 L 11.515625 0 L 11.515625 -132.6875 L 44.859375 -132.6875 Z M 44.859375 0 "/></g></g></g><g fill="#090e34" fill-opacity="1"><g transform="translate(1115.755578, 345.845089)"><g><path d="M 86.125 -29.671875 C 86.125 -19.328125 82.597656 -11.507812 75.546875 -6.21875 C 68.503906 -0.9375 58.382812 1.703125 45.1875 1.703125 C 38.03125 1.703125 31.804688 1.316406 26.515625 0.546875 C 21.234375 -0.210938 15.832031 -1.617188 10.3125 -3.671875 L 10.3125 -30.359375 C 15.488281 -28.085938 21.160156 -26.210938 27.328125 -24.734375 C 33.492188 -23.253906 38.992188 -22.515625 43.828125 -22.515625 C 51.046875 -22.515625 54.65625 -24.160156 54.65625 -27.453125 C 54.65625 -29.160156 53.644531 -30.679688 51.625 -32.015625 C 49.613281 -33.359375 43.75 -35.960938 34.03125 -39.828125 C 25.15625 -43.460938 18.953125 -47.597656 15.421875 -52.234375 C 11.898438 -56.867188 10.140625 -62.738281 10.140625 -69.84375 C 10.140625 -78.820312 13.609375 -85.8125 20.546875 -90.8125 C 27.484375 -95.820312 37.289062 -98.328125 49.96875 -98.328125 C 56.332031 -98.328125 62.3125 -97.628906 67.90625 -96.234375 C 73.507812 -94.835938 79.328125 -92.804688 85.359375 -90.140625 L 76.3125 -68.640625 C 71.882812 -70.628906 67.195312 -72.320312 62.25 -73.71875 C 57.300781 -75.113281 53.265625 -75.8125 50.140625 -75.8125 C 44.679688 -75.8125 41.953125 -74.472656 41.953125 -71.796875 C 41.953125 -70.148438 42.90625 -68.742188 44.8125 -67.578125 C 46.71875 -66.410156 52.21875 -64.035156 61.3125 -60.453125 C 68.070312 -57.671875 73.113281 -54.941406 76.4375 -52.265625 C 79.769531 -49.597656 82.21875 -46.457031 83.78125 -42.84375 C 85.34375 -39.238281 86.125 -34.847656 86.125 -29.671875 Z M 86.125 -29.671875 "/></g></g></g><g fill="#090e34" fill-opacity="1"><g transform="translate(543.742539, 598.52115)"><g><path d="M 57.984375 -78.453125 L 79.46875 -124.671875 L 115.96875 -124.671875 L 74.953125 -48.6875 L 74.953125 0 L 41.015625 0 L 41.015625 -47.671875 L 0 -124.671875 L 36.671875 -124.671875 Z M 57.984375 -78.453125 "/></g></g></g><g fill="#090e34" fill-opacity="1"><g transform="translate(650.981398, 598.52115)"><g><path d="M 103.78125 -48.515625 C 103.78125 -32.710938 99.53125 -20.390625 91.03125 -11.546875 C 82.53125 -2.710938 70.632812 1.703125 55.34375 1.703125 C 40.675781 1.703125 29.003906 -2.8125 20.328125 -11.84375 C 11.660156 -20.882812 7.328125 -33.109375 7.328125 -48.515625 C 7.328125 -64.265625 11.578125 -76.503906 20.078125 -85.234375 C 28.578125 -93.960938 40.503906 -98.328125 55.859375 -98.328125 C 65.347656 -98.328125 73.726562 -96.304688 81 -92.265625 C 88.28125 -88.234375 93.894531 -82.445312 97.84375 -74.90625 C 101.800781 -67.375 103.78125 -58.578125 103.78125 -48.515625 Z M 41.1875 -48.515625 C 41.1875 -40.222656 42.296875 -33.898438 44.515625 -29.546875 C 46.734375 -25.203125 50.457031 -23.03125 55.6875 -23.03125 C 60.851562 -23.03125 64.503906 -25.203125 66.640625 -29.546875 C 68.773438 -33.898438 69.84375 -40.222656 69.84375 -48.515625 C 69.84375 -56.765625 68.757812 -62.988281 66.59375 -67.1875 C 64.4375 -71.394531 60.742188 -73.5 55.515625 -73.5 C 50.398438 -73.5 46.734375 -71.410156 44.515625 -67.234375 C 42.296875 -63.054688 41.1875 -56.816406 41.1875 -48.515625 Z M 41.1875 -48.515625 "/></g></g></g><g fill="#090e34" fill-opacity="1"><g transform="translate(753.530243, 598.52115)"><g><path d="M 80.328125 0 L 76.15625 -12.03125 L 74.1875 -12.03125 C 71.40625 -7.59375 67.523438 -4.191406 62.546875 -1.828125 C 57.578125 0.523438 51.738281 1.703125 45.03125 1.703125 C 34.394531 1.703125 26.117188 -1.378906 20.203125 -7.546875 C 14.296875 -13.710938 11.34375 -22.425781 11.34375 -33.6875 L 11.34375 -96.609375 L 44.6875 -96.609375 L 44.6875 -43.828125 C 44.6875 -37.515625 45.582031 -32.738281 47.375 -29.5 C 49.164062 -26.257812 52.109375 -24.640625 56.203125 -24.640625 C 61.941406 -24.640625 66.03125 -26.898438 68.46875 -31.421875 C 70.914062 -35.941406 72.140625 -43.570312 72.140625 -54.3125 L 72.140625 -96.609375 L 105.484375 -96.609375 L 105.484375 0 Z M 80.328125 0 "/></g></g></g><g fill="#090e34" fill-opacity="1"><g transform="translate(861.792385, 598.52115)"><g><path d="M 68.46875 0 L 34.796875 0 L 34.796875 -97.125 L 4.34375 -97.125 L 4.34375 -124.671875 L 98.828125 -124.671875 L 98.828125 -97.125 L 68.46875 -97.125 Z M 68.46875 0 "/></g></g></g><g fill="#090e34" fill-opacity="1"><g transform="translate(956.240302, 598.52115)"><g><path d="M 80.328125 0 L 76.15625 -12.03125 L 74.1875 -12.03125 C 71.40625 -7.59375 67.523438 -4.191406 62.546875 -1.828125 C 57.578125 0.523438 51.738281 1.703125 45.03125 1.703125 C 34.394531 1.703125 26.117188 -1.378906 20.203125 -7.546875 C 14.296875 -13.710938 11.34375 -22.425781 11.34375 -33.6875 L 11.34375 -96.609375 L 44.6875 -96.609375 L 44.6875 -43.828125 C 44.6875 -37.515625 45.582031 -32.738281 47.375 -29.5 C 49.164062 -26.257812 52.109375 -24.640625 56.203125 -24.640625 C 61.941406 -24.640625 66.03125 -26.898438 68.46875 -31.421875 C 70.914062 -35.941406 72.140625 -43.570312 72.140625 -54.3125 L 72.140625 -96.609375 L 105.484375 -96.609375 L 105.484375 0 Z M 80.328125 0 "/></g></g></g><g fill="#090e34" fill-opacity="1"><g transform="translate(1064.502444, 598.52115)"><g><path d="M 70.515625 -98.328125 C 81.035156 -98.328125 89.378906 -93.921875 95.546875 -85.109375 C 101.710938 -76.296875 104.796875 -64.097656 104.796875 -48.515625 C 104.796875 -32.828125 101.679688 -20.535156 95.453125 -11.640625 C 89.234375 -2.742188 80.582031 1.703125 69.5 1.703125 C 65.914062 1.703125 62.726562 1.316406 59.9375 0.546875 C 57.15625 -0.210938 54.671875 -1.273438 52.484375 -2.640625 C 50.296875 -4.003906 47.753906 -6.28125 44.859375 -9.46875 L 42.8125 -9.46875 L 37.515625 0 L 11.515625 0 L 11.515625 -132.6875 L 44.859375 -132.6875 L 44.859375 -102.671875 C 44.859375 -99.085938 44.457031 -92.921875 43.65625 -84.171875 L 44.859375 -84.171875 C 48.097656 -89.171875 51.832031 -92.78125 56.0625 -95 C 60.300781 -97.21875 65.117188 -98.328125 70.515625 -98.328125 Z M 58.328125 -72.140625 C 53.660156 -72.140625 50.25 -70.519531 48.09375 -67.28125 C 45.9375 -64.039062 44.859375 -58.953125 44.859375 -52.015625 L 44.859375 -47.328125 C 44.859375 -39.421875 45.9375 -33.75 48.09375 -30.3125 C 50.25 -26.875 53.773438 -25.15625 58.671875 -25.15625 C 62.585938 -25.15625 65.597656 -27.15625 67.703125 -31.15625 C 69.804688 -35.164062 70.859375 -41.066406 70.859375 -48.859375 C 70.859375 -64.378906 66.679688 -72.140625 58.328125 -72.140625 Z M 58.328125 -72.140625 "/></g></g></g><g fill="#090e34" fill-opacity="1"><g transform="translate(1168.074585, 598.52115)"><g><path d="M 58.15625 1.703125 C 42.070312 1.703125 29.578125 -2.570312 20.671875 -11.125 C 11.773438 -19.6875 7.328125 -31.867188 7.328125 -47.671875 C 7.328125 -63.984375 11.445312 -76.503906 19.6875 -85.234375 C 27.9375 -93.960938 39.707031 -98.328125 55 -98.328125 C 69.550781 -98.328125 80.789062 -94.53125 88.71875 -86.9375 C 96.65625 -79.34375 100.625 -68.414062 100.625 -54.15625 L 100.625 -39.3125 L 41.015625 -39.3125 C 41.242188 -33.90625 43.21875 -29.664062 46.9375 -26.59375 C 50.664062 -23.53125 55.742188 -22 62.171875 -22 C 68.023438 -22 73.410156 -22.550781 78.328125 -23.65625 C 83.242188 -24.769531 88.570312 -26.660156 94.3125 -29.328125 L 94.3125 -5.375 C 89.082031 -2.695312 83.679688 -0.847656 78.109375 0.171875 C 72.535156 1.191406 65.882812 1.703125 58.15625 1.703125 Z M 56.203125 -75.640625 C 52.273438 -75.640625 48.988281 -74.398438 46.34375 -71.921875 C 43.695312 -69.453125 42.148438 -65.570312 41.703125 -60.28125 L 70.34375 -60.28125 C 70.238281 -64.945312 68.921875 -68.671875 66.390625 -71.453125 C 63.859375 -74.242188 60.460938 -75.640625 56.203125 -75.640625 Z M 56.203125 -75.640625 "/></g></g></g><g fill="#090e34" fill-opacity="1"><g transform="translate(1267.29779, 598.52115)"><g><path d="M 69.84375 -98.328125 C 72.738281 -98.328125 75.492188 -98.097656 78.109375 -97.640625 L 79.984375 -97.296875 L 77 -65.828125 C 74.269531 -66.515625 70.488281 -66.859375 65.65625 -66.859375 C 58.382812 -66.859375 53.097656 -65.191406 49.796875 -61.859375 C 46.503906 -58.535156 44.859375 -53.75 44.859375 -47.5 L 44.859375 0 L 11.515625 0 L 11.515625 -96.609375 L 36.328125 -96.609375 L 41.53125 -81.1875 L 43.15625 -81.1875 C 45.9375 -86.300781 49.8125 -90.4375 54.78125 -93.59375 C 59.757812 -96.75 64.78125 -98.328125 69.84375 -98.328125 Z M 69.84375 -98.328125 "/></g></g></g><g fill="#090e34" fill-opacity="1"><g transform="translate(1340.512745, 598.52115)"><g><path d="M 86.125 -29.671875 C 86.125 -19.328125 82.597656 -11.507812 75.546875 -6.21875 C 68.503906 -0.9375 58.382812 1.703125 45.1875 1.703125 C 38.03125 1.703125 31.804688 1.316406 26.515625 0.546875 C 21.234375 -0.210938 15.832031 -1.617188 10.3125 -3.671875 L 10.3125 -30.359375 C 15.488281 -28.085938 21.160156 -26.210938 27.328125 -24.734375 C 33.492188 -23.253906 38.992188 -22.515625 43.828125 -22.515625 C 51.046875 -22.515625 54.65625 -24.160156 54.65625 -27.453125 C 54.65625 -29.160156 53.644531 -30.679688 51.625 -32.015625 C 49.613281 -33.359375 43.75 -35.960938 34.03125 -39.828125 C 25.15625 -43.460938 18.953125 -47.597656 15.421875 -52.234375 C 11.898438 -56.867188 10.140625 -62.738281 10.140625 -69.84375 C 10.140625 -78.820312 13.609375 -85.8125 20.546875 -90.8125 C 27.484375 -95.820312 37.289062 -98.328125 49.96875 -98.328125 C 56.332031 -98.328125 62.3125 -97.628906 67.90625 -96.234375 C 73.507812 -94.835938 79.328125 -92.804688 85.359375 -90.140625 L 76.3125 -68.640625 C 71.882812 -70.628906 67.195312 -72.320312 62.25 -73.71875 C 57.300781 -75.113281 53.265625 -75.8125 50.140625 -75.8125 C 44.679688 -75.8125 41.953125 -74.472656 41.953125 -71.796875 C 41.953125 -70.148438 42.90625 -68.742188 44.8125 -67.578125 C 46.71875 -66.410156 52.21875 -64.035156 61.3125 -60.453125 C 68.070312 -57.671875 73.113281 -54.941406 76.4375 -52.265625 C 79.769531 -49.597656 82.21875 -46.457031 83.78125 -42.84375 C 85.34375 -39.238281 86.125 -34.847656 86.125 -29.671875 Z M 86.125 -29.671875 "/></g></g></g><g mask="url(#790ee77282)"><g transform="matrix(1, 0, 0, 1, 830, 266)"><g clip-path="url(#f8324abc08)"><g clip-path="url(#934e3c2ab9)"><g clip-path="url(#1ec17a57e4)"><g clip-path="url(#1788537150)"><path fill="#ffffff" d="M 223.042969 26.730469 C 222.390625 27.484375 221.773438 27.613281 220.757812 27.640625 C 221.429688 26.921875 221.980469 26.644531 223.042969 26.730469 Z M 226.28125 15.074219 C 226.964844 15.101562 227.542969 15.359375 228.023438 15.847656 C 226.679688 17.316406 226.738281 15.613281 226.28125 15.074219 Z M 215.960938 18.273438 C 218.933594 17.207031 221.785156 15.746094 225.019531 15.554688 C 224.601562 16.46875 224.28125 17.445312 223.746094 18.28125 C 222.476562 20.269531 221.246094 20.59375 219.03125 19.539062 C 218.023438 19.058594 216.808594 19.113281 215.960938 18.273438 Z M 26.238281 91.367188 C 27.625 90.359375 28.507812 88.910156 29.652344 87.621094 C 30.597656 88.644531 32.140625 88.554688 33.144531 89.4375 C 32.984375 89.75 32.9375 90 32.789062 90.101562 C 31.992188 90.628906 30.40625 89.894531 30.257812 91.214844 C 30.09375 92.628906 31.5625 92.382812 32.46875 92.621094 C 33.203125 92.8125 33.742188 93.242188 33.527344 94.035156 C 33.289062 94.917969 32.449219 95.335938 31.675781 95.082031 C 29.796875 94.460938 28.183594 93.199219 26.195312 92.738281 C 25.585938 92.59375 25.738281 91.730469 26.238281 91.367188 Z M 11.722656 112.597656 C 11.363281 111.628906 12.167969 111.222656 12.800781 110.757812 C 14.875 109.21875 17.230469 108.804688 19.765625 108.785156 C 22.921875 108.757812 22.917969 108.671875 23.21875 105.476562 C 23.234375 105.261719 23.359375 105.058594 23.503906 104.652344 C 24.492188 104.75 23.988281 106.371094 25.058594 106.300781 C 25.949219 106.242188 26.398438 105.5625 27 105.085938 C 27.523438 104.667969 28.101562 104.324219 28.65625 103.949219 C 29.59375 103.386719 30.511719 102.792969 31.46875 102.273438 C 31.78125 102.101562 32.328125 101.785156 32.402344 102.515625 C 32.429688 102.789062 32.136719 103.09375 31.988281 103.382812 C 32.648438 104.03125 32.664062 104.804688 32.253906 105.542969 C 31.875 106.222656 31.394531 106.847656 30.90625 107.457031 C 28.851562 110.039062 28.847656 110.03125 31.472656 112.152344 C 29.992188 113.550781 29.269531 115.464844 28.035156 117.042969 C 27.488281 117.746094 26.914062 118.472656 26.210938 119 C 25.328125 119.660156 24.105469 120.539062 23.1875 119.636719 C 22.039062 118.515625 23.523438 117.691406 24.128906 116.871094 C 24.859375 115.878906 25.703125 114.972656 26.480469 114.011719 C 27.332031 112.953125 27.675781 111.738281 26.738281 110.636719 C 25.730469 109.453125 24.335938 109.738281 23.464844 110.699219 C 20.753906 113.691406 16.972656 112.65625 13.703125 113.488281 C 12.972656 113.675781 12.050781 113.484375 11.722656 112.597656 Z M 34.902344 176.632812 C 35.089844 177.078125 34.964844 177.527344 34.5 177.726562 C 33.910156 177.972656 33.414062 177.714844 33.105469 177.207031 C 32.789062 176.683594 32.84375 176.175781 33.363281 175.78125 C 34.175781 175.542969 34.628906 175.976562 34.902344 176.632812 Z M 54.804688 180.496094 C 55.582031 182.144531 53.847656 182.429688 52.953125 183.054688 C 52.089844 183.660156 51.121094 183.871094 50.421875 182.851562 C 49.941406 181.832031 50.667969 180.429688 51.917969 179.828125 C 53.058594 179.28125 54.273438 179.359375 54.804688 180.496094 Z M 42.347656 174.144531 C 42.875 175.265625 42.144531 176.496094 40.585938 177.230469 C 39.367188 177.800781 38.363281 177.640625 37.964844 176.8125 C 37.472656 175.804688 38.707031 173.816406 40.21875 173.1875 C 41.265625 172.75 41.929688 173.25 42.347656 174.144531 Z M 258.980469 70.679688 C 258.957031 70.3125 259.164062 70.050781 259.488281 70.054688 C 259.753906 70.058594 260.167969 70.195312 260.261719 70.394531 C 260.507812 70.910156 260.140625 71.15625 259.664062 71.179688 C 259.339844 71.195312 259.085938 71.015625 258.980469 70.679688 Z M 254.832031 147.371094 C 254.933594 147.339844 255.035156 147.3125 255.136719 147.28125 C 255.152344 147.371094 255.207031 147.519531 255.175781 147.542969 C 254.898438 147.742188 254.777344 147.675781 254.832031 147.371094 Z M 283.980469 141.953125 L 283.789062 141.933594 L 283.898438 141.769531 Z M 284.507812 143.804688 C 284.910156 143.625 285.367188 143.421875 285.644531 143.894531 C 285.773438 144.109375 285.738281 144.578125 285.578125 144.773438 C 285.101562 145.351562 284.625 144.996094 284.191406 144.632812 C 283.832031 144.828125 283.480469 145.046875 283.105469 145.199219 C 283.054688 145.21875 282.746094 144.886719 282.777344 144.777344 C 283.023438 143.890625 283.707031 143.726562 284.507812 143.804688 Z M 287.742188 138.996094 C 288.207031 138.96875 288.621094 139.101562 288.742188 139.589844 C 288.832031 139.960938 288.539062 140.222656 288.195312 140.171875 C 287.910156 140.125 287.574219 139.9375 287.410156 139.710938 C 287.1875 139.402344 287.371094 139.117188 287.742188 138.996094 Z M 284.832031 130.253906 C 285.59375 130.984375 285.023438 131.738281 284.566406 132.335938 C 283.542969 133.671875 281.71875 134.554688 282.328125 136.765625 C 282.425781 137.121094 281.816406 137.460938 281.339844 137.496094 C 280.808594 137.535156 280.578125 137.183594 280.386719 136.730469 C 279.0625 133.574219 279.851562 131.578125 282.949219 130.285156 C 283.578125 130.011719 284.273438 129.714844 284.832031 130.253906 Z M 253.285156 189.988281 C 252.769531 190.847656 252.328125 191.589844 251.886719 192.335938 L 251.871094 192.351562 C 251.050781 193.410156 249.863281 193.828125 248.648438 194.199219 C 249.128906 193.925781 249.605469 193.652344 250.082031 193.375 C 249.554688 193.5625 249.035156 193.765625 248.648438 194.199219 C 248.179688 194.625 247.835938 195.34375 246.996094 194.910156 C 247.023438 193.699219 246.925781 192.582031 248.605469 192.15625 C 250.171875 191.753906 251.339844 190.324219 253.285156 189.988281 Z M 125.601562 51.71875 C 125.597656 51.703125 125.597656 51.6875 125.597656 51.671875 C 125.597656 51.6875 125.597656 51.703125 125.601562 51.71875 Z M 206.042969 26.414062 C 206.042969 26.414062 206.042969 26.414062 206.042969 26.410156 C 206.042969 26.414062 206.042969 26.414062 206.042969 26.414062 Z M 208.652344 64.257812 C 208.898438 63.957031 209.347656 63.710938 209.820312 63.464844 C 209.46875 63.691406 209.082031 63.957031 208.652344 64.257812 Z M 265.589844 150.628906 C 265.367188 150.652344 265.140625 150.613281 264.902344 150.457031 C 265.132812 150.539062 265.363281 150.597656 265.589844 150.628906 Z M 261.898438 174.050781 C 261.90625 174.042969 261.910156 174.035156 261.914062 174.027344 C 261.933594 174.03125 261.949219 174.039062 261.96875 174.042969 C 261.945312 174.046875 261.921875 174.046875 261.898438 174.050781 Z M 217.65625 201.089844 C 217.675781 201.0625 217.695312 201.03125 217.714844 201.003906 C 217.695312 201.03125 217.675781 201.0625 217.65625 201.09375 C 217.65625 201.09375 217.65625 201.09375 217.65625 201.089844 Z M 219.003906 114.949219 C 219.238281 114.851562 219.472656 114.726562 219.714844 114.6875 C 219.488281 114.789062 219.234375 114.851562 219.003906 114.949219 Z M 274.167969 154.25 C 274.164062 154.246094 274.15625 154.246094 274.152344 154.242188 C 274.152344 154.238281 274.152344 154.238281 274.148438 154.234375 C 274.15625 154.238281 274.167969 154.242188 274.179688 154.246094 C 274.171875 154.246094 274.171875 154.246094 274.167969 154.25 Z M 297.390625 149.269531 C 296.472656 149.050781 295.667969 149.480469 294.8125 149.757812 C 292.773438 150.414062 290.726562 151.121094 288.445312 150.917969 C 290.765625 149.222656 293.667969 148.238281 294.472656 145.089844 C 293.890625 144.832031 293.308594 144.578125 292.730469 144.320312 C 289.394531 145.734375 285.664062 145.875 282.398438 147.523438 C 280.453125 145.605469 280.257812 145.476562 278.242188 146.992188 C 277.132812 147.828125 276.164062 148.132812 274.878906 147.683594 C 273.65625 147.261719 272.722656 147.828125 271.910156 148.691406 C 270.910156 149.058594 269.90625 149.425781 268.902344 149.792969 C 268.457031 149.953125 268.011719 150.113281 267.566406 150.277344 L 267.582031 150.214844 C 267.394531 150.128906 267.210938 150.117188 267.03125 150.144531 C 266.304688 150.089844 265.597656 150.203125 264.902344 150.457031 C 264.902344 150.457031 264.835938 150.433594 264.835938 150.433594 C 266.679688 148.980469 266.621094 147.015625 266.296875 144.980469 C 266.140625 144.363281 266.839844 143.699219 266.222656 143.097656 C 263.148438 143.925781 263.148438 143.925781 261.652344 145.992188 C 261.269531 146.324219 260.886719 146.652344 260.5 146.980469 C 260 146.488281 259.691406 145.597656 258.769531 145.90625 C 258.089844 146.128906 258.25 146.699219 258.5 147.207031 C 257.019531 147.804688 255.445312 148.214844 254.265625 149.386719 C 253.992188 149.308594 253.722656 149.234375 253.453125 149.15625 C 251.964844 148.378906 250.914062 148.730469 250.371094 150.363281 C 250.371094 150.363281 250.371094 150.363281 250.375 150.363281 C 250.371094 150.363281 250.371094 150.363281 250.371094 150.363281 C 250.554688 151.339844 251.117188 152.363281 250.023438 153.179688 C 248.363281 150.894531 246.160156 151.386719 243.980469 152.054688 C 241.894531 152.695312 241.914062 152.757812 239.867188 152.417969 C 242.429688 151.25 244.496094 150.1875 246.648438 149.359375 C 250.070312 148.046875 253.5625 146.921875 257 145.65625 C 258.242188 145.195312 259.566406 144.722656 259.8125 143.113281 C 259.949219 142.335938 259.605469 141.734375 259.101562 141.195312 C 260.792969 139.589844 263.183594 140.601562 265.042969 139.613281 C 265.039062 139.613281 265.039062 139.613281 265.039062 139.613281 C 265.039062 139.613281 265.039062 139.613281 265.042969 139.613281 C 265.453125 139.480469 265.867188 139.347656 266.28125 139.214844 C 266.226562 139.710938 266.175781 140.214844 266.125 140.710938 C 264.949219 141.582031 263.164062 141.390625 262.46875 143.332031 C 264.699219 142.585938 266.929688 141.84375 269.160156 141.097656 C 269.164062 141.097656 269.164062 141.097656 269.164062 141.097656 C 269.132812 141.3125 269.007812 141.667969 269.085938 141.71875 C 270.425781 142.613281 271.964844 142.574219 273.394531 142.242188 C 274.398438 142.003906 275.058594 140.847656 274.75 139.894531 C 274.339844 138.644531 273.300781 139.59375 272.535156 139.71875 C 272.214844 139.769531 271.914062 139.933594 271.605469 140.046875 C 271.445312 139.636719 271.285156 139.226562 271.128906 138.820312 C 272.671875 138.179688 274.230469 137.558594 275.757812 136.882812 C 276.167969 136.699219 276.472656 136.277344 276.269531 135.796875 C 276.066406 135.308594 275.539062 135.261719 275.113281 135.363281 C 274.46875 135.523438 273.832031 135.75 273.234375 136.035156 C 271.929688 136.660156 270.648438 137.339844 269.359375 137.996094 C 269.277344 137.777344 269.195312 137.5625 269.117188 137.34375 C 269.410156 137.195312 269.71875 137.0625 270 136.886719 C 270.28125 136.714844 270.660156 136.382812 270.464844 136.125 C 270.066406 135.609375 269.710938 136.140625 269.382812 136.371094 C 269.203125 136.492188 269.0625 136.675781 268.90625 136.832031 C 268.613281 136.691406 268.320312 136.546875 268.023438 136.402344 C 268.863281 135.273438 270.027344 134.65625 271.335938 134.21875 C 272.714844 133.757812 274.085938 133.253906 275.429688 132.699219 C 276.488281 132.265625 277.746094 131.613281 277.191406 130.316406 C 276.71875 129.214844 275.625 130.277344 274.808594 130.351562 C 274.476562 130.382812 274.15625 130.523438 273.835938 130.617188 C 270.246094 131.699219 266.753906 133.339844 262.820312 132.351562 C 262.53125 132.28125 262.089844 132.804688 261.722656 133.046875 C 261.308594 133.183594 260.890625 133.320312 260.476562 133.457031 C 257.703125 134.25 254.847656 134.605469 252.007812 135.042969 C 251.597656 135.109375 251.210938 135.324219 250.824219 135.519531 C 250.71875 135.546875 250.613281 135.59375 250.496094 135.671875 C 249.683594 136.054688 248.855469 136.367188 247.925781 136.179688 C 250.089844 134.550781 252.257812 132.917969 254.421875 131.289062 C 254.257812 131.292969 254.089844 131.296875 253.925781 131.304688 C 254.089844 131.25 254.253906 131.226562 254.421875 131.289062 C 257.9375 129.097656 260.886719 126.214844 263.964844 123.488281 C 265.074219 122.378906 266.234375 121.320312 267.277344 120.152344 C 268.109375 119.214844 269.046875 118.222656 268.5 116.566406 C 267.210938 117.289062 266.316406 118.152344 265.105469 118.515625 C 263.917969 118.871094 262.6875 119.542969 261.542969 118.886719 C 258.785156 117.308594 257.164062 118.757812 255.679688 120.816406 C 255.316406 121.199219 254.957031 121.582031 254.597656 121.960938 C 252.8125 120.070312 252.570312 120.039062 250.988281 121.660156 C 250.367188 122.296875 249.894531 123.09375 249.210938 123.640625 C 248.605469 124.128906 247.800781 124.378906 247.289062 123.320312 C 249.710938 121.996094 251.296875 119.835938 252.699219 117.640625 C 254.191406 115.3125 257.242188 114.515625 258.34375 111.828125 C 257.6875 111.472656 257.234375 111.640625 256.902344 111.917969 C 254.960938 113.535156 252.855469 114.546875 250.21875 114.4375 C 249.117188 114.390625 248.121094 115.136719 247.300781 115.9375 C 246.480469 116.300781 245.660156 116.660156 244.839844 117.023438 C 244.632812 117.105469 244.421875 117.191406 244.214844 117.277344 C 243.414062 117.59375 242.613281 117.910156 241.8125 118.230469 C 241.347656 118.394531 240.886719 118.5625 240.421875 118.726562 C 239.8125 118.957031 239.203125 119.191406 238.59375 119.425781 C 237.117188 119.996094 235.558594 120.402344 234.40625 121.597656 C 234.40625 121.597656 234.40625 121.597656 234.40625 121.601562 C 233.640625 121.605469 232.871094 121.609375 231.953125 121.617188 C 232.453125 120.949219 232.761719 120.53125 233.074219 120.113281 L 232.96875 120 C 235.214844 118.898438 237.90625 118.808594 239.804688 116.898438 C 239.140625 116.910156 238.480469 116.917969 237.816406 116.929688 C 238.734375 116.679688 239.359375 116.074219 239.816406 115.269531 C 242.882812 114.199219 245.5625 112.417969 248.273438 110.695312 C 250.421875 109.589844 252.667969 108.632812 254.304688 106.664062 C 250.75 107.414062 247.785156 109.894531 244.039062 109.9375 C 243.777344 109.941406 243.394531 110.390625 243.625 110.660156 C 243.878906 110.960938 244.367188 111.0625 244.757812 111.246094 C 243.277344 112.019531 241.769531 112.578125 240.089844 111.886719 C 239.011719 113.96875 236.65625 113.433594 234.960938 114.238281 C 233.4375 114.960938 232.085938 116.433594 230.136719 116.140625 C 234.214844 113.105469 238.292969 110.070312 242.367188 107.03125 C 244.09375 105.910156 245.816406 104.789062 247.539062 103.664062 C 249.21875 103.117188 250.800781 102.441406 251.613281 100.703125 C 253.925781 100.65625 255.875 99.566406 257.871094 98.65625 C 256.871094 94.960938 256.871094 94.964844 253.433594 96.210938 C 253.019531 96.363281 252.582031 96.535156 252.183594 95.820312 C 253.652344 93.785156 254.359375 91.542969 254.253906 88.773438 C 254.09375 84.519531 256.699219 81.949219 260.90625 81.207031 C 261.480469 81.105469 261.941406 81.039062 262.359375 81.628906 C 263.457031 83.175781 263.625 83.164062 264.601562 81.839844 C 265.761719 80.253906 265.570312 79.675781 263.488281 79.203125 C 262.128906 78.890625 260.882812 78.519531 260.046875 77.320312 C 260.878906 77 261.714844 76.675781 262.550781 76.355469 C 261.875 75.328125 260.941406 75.386719 259.875 75.585938 C 257.460938 76.046875 255.027344 76.414062 252.601562 76.824219 C 251.933594 76.933594 251.226562 77.117188 250.894531 76.285156 C 250.660156 75.710938 250.929688 75.179688 251.304688 74.75 C 251.597656 74.414062 251.960938 74.148438 252.304688 73.867188 C 252.871094 73.40625 253.933594 73.222656 253.5625 72.191406 C 253.277344 71.40625 252.417969 71.128906 251.65625 70.960938 C 250.261719 70.65625 248.730469 70.757812 248.121094 68.953125 C 247.945312 68.429688 247.132812 68.601562 246.585938 68.722656 C 245.058594 69.058594 243.535156 69.40625 242.011719 69.75 C 242.003906 69.75 242 69.753906 241.996094 69.753906 C 242.820312 68.644531 244.441406 68.476562 245.148438 67.398438 C 246.167969 65.855469 247.5625 65.667969 249.140625 65.558594 C 250.476562 65.46875 251.789062 65.164062 252.972656 64.527344 C 253.941406 64.011719 253.75 63.324219 253.042969 62.675781 C 253.042969 62.675781 253.035156 62.664062 253.035156 62.664062 C 251.980469 63.066406 250.925781 63.464844 249.871094 63.867188 C 245.019531 64.144531 240.324219 65.265625 235.644531 66.460938 C 235.429688 66.554688 235.214844 66.644531 235.003906 66.738281 C 234.921875 66.820312 234.832031 66.894531 234.738281 66.960938 C 234.824219 66.886719 234.914062 66.816406 235.003906 66.738281 C 232.023438 67.621094 229.003906 68.347656 225.960938 68.960938 C 225.765625 68.769531 225.582031 68.570312 225.433594 68.34375 C 223.484375 65.835938 220.925781 65.34375 217.933594 65.859375 C 216.78125 66.054688 215.535156 66.652344 214.316406 65.886719 C 214.171875 65.695312 214.078125 65.476562 213.957031 65.265625 C 213.21875 62.703125 212.628906 61.992188 210.898438 62.839844 C 211.414062 62.46875 211.765625 62.011719 211.609375 61.335938 C 210.933594 58.40625 212.550781 57.628906 214.523438 56.675781 C 217.140625 55.410156 218.335938 53.019531 217.546875 50.792969 C 216.484375 47.800781 214.261719 49.550781 212.460938 49.558594 C 212.128906 49.636719 211.792969 49.722656 211.460938 49.761719 C 211.441406 49.742188 211.417969 49.722656 211.398438 49.703125 C 211.886719 49.230469 212.960938 49.210938 212.648438 47.945312 C 211.574219 48.046875 210.585938 48.351562 209.640625 48.75 C 209.644531 48.683594 209.648438 48.613281 209.644531 48.550781 C 210.011719 47.292969 211.183594 46.933594 212.1875 46.40625 C 216.917969 43.921875 221.367188 40.945312 226.085938 38.421875 C 228.179688 37.300781 228.050781 36.042969 225.925781 34.910156 C 225.753906 34.820312 225.589844 34.71875 225.421875 34.621094 C 227.28125 33.632812 228.925781 32.269531 230.65625 30.726562 C 229.140625 30.398438 228.492188 31.265625 227.703125 31.792969 C 227.195312 31.667969 226.6875 31.546875 225.8125 31.335938 C 227.835938 30.453125 229.574219 29.695312 231.316406 28.9375 C 231.894531 28.378906 231.847656 27.886719 230.992188 27.933594 C 229.5625 28.007812 228.238281 29.046875 226.761719 28.625 C 223.890625 27.808594 221.261719 28.722656 218.613281 29.570312 C 217.675781 29.871094 216.773438 30.261719 215.878906 30.601562 C 215.449219 29.804688 216.648438 29.652344 216.023438 28.855469 C 213.1875 29.746094 210.597656 31.691406 207.417969 31.75 C 207.613281 31.289062 207.640625 30.894531 207.007812 30.808594 C 205.609375 30.613281 204.230469 30.710938 202.882812 31.148438 C 202.347656 30.507812 202.261719 29.957031 203.261719 29.796875 C 204.113281 29.660156 205.023438 29.886719 205.820312 29.386719 C 207.613281 28.824219 209.910156 29.28125 211.15625 27.714844 C 212.535156 25.972656 214.414062 25.464844 216.226562 24.664062 C 216.144531 24.453125 216.0625 24.238281 215.984375 24.027344 C 213.546875 23.8125 211.542969 25.136719 209.375 25.871094 C 209.378906 25.871094 209.378906 25.871094 209.382812 25.871094 C 209.378906 25.871094 209.375 25.871094 209.375 25.871094 C 208.984375 26.011719 208.597656 26.152344 208.207031 26.292969 C 207.472656 26.132812 206.753906 26.183594 206.039062 26.402344 C 205.890625 25.695312 205.898438 25.117188 206.773438 24.820312 C 208.546875 24.21875 209.941406 22.863281 211.894531 22.488281 C 213.558594 22.167969 213.984375 20.929688 212.808594 19.464844 C 211.070312 19.582031 209.65625 20.5625 208.113281 21.207031 C 206.675781 21.804688 205.148438 22.75 203.609375 22.023438 C 201.199219 20.882812 199.347656 21.617188 197.414062 23.070312 C 195.042969 24.855469 194.964844 24.808594 192.652344 22.832031 C 191.914062 22.199219 191.148438 21.882812 190.808594 22.941406 C 189.847656 25.953125 187.308594 25.339844 185.265625 25.875 C 184.765625 24.863281 186.125 24.265625 185.226562 23.367188 C 183.753906 23.660156 183.285156 24.910156 182.636719 26.085938 C 181.640625 27.902344 181.011719 28.039062 179.160156 27.074219 C 178.777344 26.875 178.496094 26.46875 177.71875 26.597656 C 176.796875 27.394531 176.457031 29.582031 174.433594 29.0625 C 173.085938 28.71875 172.34375 29.273438 171.542969 30.164062 C 171.109375 30.644531 170.503906 31.039062 169.898438 31.273438 C 167.765625 32.097656 166.953125 32.667969 165.726562 34.253906 C 165.460938 34.589844 165.160156 34.898438 164.847656 35.199219 C 164.410156 35.019531 163.972656 34.851562 163.550781 34.898438 C 161.21875 36.894531 158.386719 37.824219 155.511719 38.636719 C 153.289062 39.261719 150.878906 39.355469 149.046875 41.027344 C 148.609375 41.582031 148.601562 42.304688 148.328125 42.925781 C 148.273438 43.011719 148.21875 43.089844 148.160156 43.171875 C 147.945312 43.375 147.761719 43.605469 147.617188 43.875 C 147.214844 44.328125 146.777344 44.699219 146.296875 44.984375 C 144.777344 44.929688 143.199219 44.449219 141.863281 45.460938 C 141.800781 45.507812 141.742188 45.550781 141.679688 45.59375 C 141.03125 45.625 140.402344 45.789062 139.816406 46.15625 C 139.1875 46.546875 138.550781 46.925781 137.90625 47.285156 C 136.976562 47.484375 136.007812 47.558594 134.996094 47.519531 C 134.421875 47.496094 133.933594 47.535156 133.515625 48.046875 C 131.628906 50.34375 129.21875 50.128906 126.714844 49.394531 C 125.984375 49.832031 125.496094 50.421875 125.523438 51.328125 C 125.554688 51.429688 125.574219 51.519531 125.585938 51.601562 C 125.570312 51.515625 125.554688 51.425781 125.523438 51.328125 C 124.730469 51.960938 124.03125 51.238281 123.285156 51.167969 C 121.90625 50.863281 120.835938 51.339844 120.03125 52.472656 C 120.03125 52.472656 120.03125 52.472656 120.03125 52.476562 L 120.019531 52.515625 C 119.554688 53.175781 119.089844 53.839844 118.625 54.5 C 118.625 54.503906 118.625 54.503906 118.625 54.503906 C 118.464844 54.714844 118.375 54.933594 118.332031 55.167969 C 115.605469 55.707031 112.675781 55.351562 110.089844 56.492188 C 109.753906 56.539062 109.421875 56.597656 109.09375 56.679688 C 107.113281 57.25 105.246094 58.074219 103.519531 59.203125 C 102.867188 59.535156 102.203125 59.851562 101.601562 60.277344 C 100.941406 60.761719 100.597656 61.355469 100.492188 62.042969 C 97.996094 62.933594 95.621094 64.074219 93.449219 65.65625 C 91.964844 65.867188 92.550781 67.976562 91.632812 68.097656 C 90.140625 68.289062 89.402344 69.6875 88.371094 70.59375 C 87.59375 70.847656 86.8125 71.089844 86.035156 71.339844 C 86.023438 71.339844 86.015625 71.339844 86.003906 71.335938 C 85.839844 71.3125 85.707031 71.371094 85.601562 71.480469 C 85.351562 71.5625 85.105469 71.644531 84.859375 71.730469 C 84.632812 71.769531 84.390625 71.777344 84.210938 71.894531 C 75.21875 77.835938 65.765625 82.921875 56.035156 87.566406 C 51.40625 89.773438 46.789062 92.109375 42.578125 95.121094 C 42.390625 95.285156 42.199219 95.445312 42 95.605469 C 41.832031 95.640625 41.652344 95.71875 41.460938 95.828125 C 39.8125 96.765625 38.242188 97.820312 36.4375 98.523438 C 35.070312 99.054688 34.664062 100.046875 35.199219 101.195312 C 35.164062 101.25 35.125 101.296875 35.089844 101.351562 C 34.359375 102.757812 34.796875 103.792969 35.949219 104.601562 C 35.921875 104.65625 35.902344 104.71875 35.886719 104.796875 C 36.167969 105.050781 36.46875 105.25 36.78125 105.40625 C 36.929688 105.605469 37.054688 105.824219 37.148438 106.066406 C 37.238281 106.5625 37.222656 107.070312 37.328125 107.570312 C 37.320312 107.730469 37.296875 107.886719 37.261719 108.039062 C 36.949219 108.191406 36.648438 108.402344 36.375 108.679688 C 36.0625 109 35.785156 109.410156 36.121094 109.832031 C 36.222656 109.957031 36.34375 110.023438 36.476562 110.058594 C 36.417969 110.398438 36.347656 110.734375 36.25 111.066406 C 36.132812 111.292969 36.015625 111.523438 35.964844 111.785156 C 35.820312 112.15625 35.65625 112.519531 35.5625 112.90625 C 35.414062 113.410156 35.292969 113.886719 35.199219 114.332031 C 34.214844 114.925781 33.511719 115.835938 33.195312 117.046875 C 32.765625 118.707031 31.886719 119.816406 30.625 120.824219 C 29.75 121.519531 28.917969 122.296875 28.191406 123.140625 C 27.394531 124.066406 27.796875 125.128906 28.957031 125.464844 C 29.648438 125.664062 30.414062 125.640625 30.875 125.15625 C 33.035156 122.875 36.03125 123.222656 38.699219 122.53125 C 38.960938 122.671875 39.21875 122.746094 39.46875 122.761719 C 39.488281 122.929688 39.496094 123.097656 39.488281 123.269531 C 39.347656 123.917969 39.046875 124.527344 38.960938 125.195312 C 38.808594 125.996094 38.546875 126.703125 38.199219 127.324219 C 37.765625 127.667969 37.304688 127.976562 36.820312 128.261719 C 35.835938 128.835938 34.824219 129.46875 34.21875 130.398438 C 34.183594 130.410156 34.148438 130.421875 34.113281 130.433594 C 33.328125 130.941406 32.515625 131.414062 31.726562 131.921875 C 29.832031 133.484375 27.542969 134.398438 25.53125 135.757812 C 24.296875 136.59375 22.390625 137.214844 22.738281 139.039062 C 23.085938 140.875 24.921875 141.324219 26.617188 141.582031 C 26.835938 141.613281 27.042969 141.703125 27.285156 141.78125 C 27.347656 142.003906 27.320312 142.21875 27.273438 142.4375 C 27.082031 142.671875 27.011719 142.914062 27.085938 143.128906 C 26.890625 143.644531 26.582031 144.101562 26.375 144.609375 C 26.203125 145.269531 26.125 145.976562 26.269531 146.609375 C 26.660156 148.351562 27.089844 149.8125 25.488281 151.480469 C 24.25 152.773438 25.625 154.855469 27.636719 154.886719 C 29.972656 154.921875 32.339844 154.925781 34.585938 154.007812 C 39.542969 151.96875 44.703125 150.449219 49.417969 147.769531 C 52.171875 146.207031 54.890625 144.429688 58.242188 143.644531 C 57.078125 144.707031 55.820312 145.1875 54.589844 145.726562 C 49.109375 148.117188 44.589844 151.628906 41.660156 156.949219 C 40.726562 158.644531 40.058594 160.621094 42.554688 161.316406 C 45.019531 162 45.628906 163.480469 45.746094 165.683594 C 45.867188 168.011719 46.582031 170.277344 46.257812 172.671875 C 46.070312 174.054688 46.480469 175.078125 47.476562 175.570312 C 47.425781 175.597656 47.375 175.621094 47.320312 175.648438 C 47.78125 175.992188 48.28125 176.25 48.867188 176.203125 C 55.15625 175.671875 61.105469 174.097656 66.476562 170.765625 C 67.738281 170.296875 68.992188 169.816406 70.253906 169.335938 C 70.414062 169.273438 70.574219 169.214844 70.734375 169.152344 C 70.785156 169.265625 70.839844 169.382812 70.890625 169.5 C 70.082031 169.773438 69.363281 170.207031 68.824219 170.878906 C 67.816406 172.140625 68.625 172.539062 69.75 172.765625 C 69.675781 173.042969 69.597656 173.316406 69.523438 173.589844 C 68.742188 173.613281 67.859375 173.554688 67.667969 174.566406 C 67.515625 175.378906 67.785156 176.394531 68.613281 176.464844 C 70.644531 176.640625 70.929688 178.726562 72.328125 179.535156 C 72.570312 180.636719 70.492188 180.921875 71.375 182.25 C 71.527344 182.671875 71.679688 183.089844 71.832031 183.507812 C 71.707031 183.636719 71.566406 183.738281 71.40625 183.820312 C 70.890625 184.050781 70.238281 184.324219 70.574219 184.992188 C 70.796875 185.4375 71.371094 185.164062 71.765625 184.929688 C 72.171875 184.796875 72.574219 184.660156 72.980469 184.523438 C 72.773438 185.011719 72.570312 185.5 72.367188 185.992188 C 72.277344 186.082031 72.21875 186.191406 72.226562 186.328125 L 72.101562 186.277344 C 71.414062 187.992188 69.871094 189.128906 68.640625 190.863281 C 71.8125 190.585938 74.335938 189.664062 76.746094 188.496094 C 83 185.457031 89.351562 182.726562 96.261719 181.550781 C 96 182.058594 95.738281 182.566406 95.472656 183.070312 C 94.199219 183.9375 92.664062 184.472656 91.78125 185.832031 C 91.714844 185.890625 91.65625 185.992188 91.601562 186.132812 C 91.011719 186.390625 90.425781 186.644531 89.835938 186.894531 C 88.519531 187.894531 87.183594 188.867188 86.136719 190.179688 C 84.378906 192.386719 84.472656 192.707031 87.261719 193.566406 C 87.675781 195.511719 87.792969 195.550781 90.398438 194.582031 L 90.40625 194.578125 C 90.453125 194.984375 90.699219 195.542969 90.519531 195.769531 C 89.582031 196.949219 90.222656 197.15625 91.292969 197.214844 C 91.601562 197.234375 91.90625 197.34375 92.214844 197.410156 C 92.035156 197.492188 91.855469 197.582031 91.679688 197.679688 C 90.035156 198.210938 89.5625 199.742188 88.558594 200.933594 C 89.554688 201.496094 90.628906 201.203125 91.132812 202.132812 C 89.675781 203.023438 91.5625 204.152344 90.90625 205.144531 C 89.695312 206.957031 89.558594 209.265625 88.160156 211.042969 C 96.871094 206.691406 105.289062 201.886719 114.886719 198.503906 C 114.472656 200.09375 113.433594 200.496094 112.894531 201.273438 C 112.585938 201.714844 112.382812 202.230469 112.132812 202.710938 C 113.800781 203.367188 112.527344 205.652344 114.144531 206.335938 C 113.761719 206.59375 113.433594 206.886719 113.351562 207.371094 C 111.941406 208.167969 111.929688 210.144531 110.414062 210.851562 C 109.449219 211.308594 108.78125 212.058594 108.285156 212.988281 C 107.441406 213.390625 106.59375 213.789062 106.007812 214.5625 C 105.480469 215.292969 104.71875 215.679688 103.964844 216.136719 C 101.648438 217.546875 99.195312 218.828125 97.800781 221.34375 C 97.84375 223.121094 98.78125 224.15625 100.472656 224.5625 C 101.511719 224.210938 102.546875 223.859375 103.585938 223.507812 C 103.660156 223.691406 103.742188 223.871094 103.828125 224.050781 C 101.464844 226.011719 99.765625 228.488281 98.121094 231.222656 C 100.648438 229.726562 101.210938 233.320312 103.710938 232.414062 C 101.511719 234.691406 101.476562 235.5625 103.019531 237.4375 C 104.207031 238.425781 102.050781 239.121094 102.710938 240.003906 C 103.457031 240.507812 104.292969 239.410156 104.867188 240.210938 C 104.460938 242.46875 102.214844 243.761719 101.917969 246.359375 C 106.144531 245.699219 110.070312 244.855469 113.847656 243.410156 C 118.871094 241.492188 123.871094 239.519531 128.882812 237.566406 C 130.324219 237.023438 131.765625 236.472656 133.207031 235.929688 C 133.207031 235.925781 133.207031 235.925781 133.210938 235.925781 L 133.339844 235.820312 C 134.097656 234.726562 135.328125 234.445312 136.472656 234.019531 C 136.988281 234.09375 137.441406 233.496094 137.996094 233.871094 C 136.257812 235.632812 136.257812 235.632812 136.042969 238.417969 C 136.660156 238.894531 137.273438 239.363281 137.890625 239.839844 C 136.347656 241.210938 135.71875 242.785156 136.792969 244.933594 C 140.125 243.84375 143.367188 242.777344 146.609375 241.714844 C 149.679688 240.53125 152.746094 239.347656 155.8125 238.164062 C 155.96875 238.050781 156.128906 237.945312 156.289062 237.84375 C 156.132812 237.953125 155.96875 238.054688 155.8125 238.164062 C 158.398438 237.132812 161.238281 236.664062 163.386719 234.6875 C 163.914062 234.199219 164.535156 233.925781 165.253906 233.882812 C 165.691406 233.859375 166.179688 233.691406 166.5625 233.828125 C 168.464844 234.5 168.804688 233.40625 168.835938 231.910156 C 169.351562 231.640625 169.867188 231.371094 170.382812 231.101562 C 170.910156 230.941406 171.4375 230.785156 171.964844 230.625 C 172.175781 230.742188 172.367188 230.765625 172.535156 230.699219 C 173.570312 230.753906 174.523438 230.382812 175.472656 229.976562 C 175.472656 229.976562 175.46875 229.976562 175.46875 229.976562 C 175.472656 229.976562 175.472656 229.976562 175.472656 229.976562 C 177.148438 229.398438 178.71875 228.617188 180.152344 227.566406 C 181.03125 227.832031 181.601562 227.316406 182.21875 226.816406 C 182.898438 226.265625 183.464844 225.617188 184.363281 225.28125 C 187.183594 224.238281 189.972656 223.097656 192.722656 221.886719 C 194.25 221.214844 195.878906 220.546875 197.089844 219.464844 C 198.140625 218.519531 199.214844 218.097656 200.480469 217.636719 C 202.914062 216.753906 205.660156 216.28125 207.042969 213.539062 C 207.605469 212.425781 209.257812 212 210.082031 212.230469 C 212.183594 212.816406 213.480469 211.722656 214.941406 210.757812 C 216.421875 209.828125 217.519531 208.628906 217.765625 206.816406 C 219.566406 207.710938 221.308594 207.644531 223.132812 206.75 C 224.621094 206.027344 226.230469 205.550781 227.785156 204.964844 C 228.296875 204.824219 228.363281 204.300781 228.640625 203.960938 C 229.117188 202.925781 230.289062 202.613281 230.917969 201.738281 C 232.261719 200.667969 233.605469 199.601562 234.953125 198.53125 C 234.289062 197.695312 233.664062 198.027344 233.070312 198.121094 C 232.6875 195.546875 230.355469 196.773438 228.96875 196.292969 C 229.105469 194.878906 230.394531 194.746094 230.914062 193.914062 C 231.289062 193.3125 231.5625 192.675781 231.097656 192.082031 C 230.476562 191.285156 229.628906 191.492188 229.074219 192.09375 C 227.6875 193.582031 225.675781 194.179688 224.261719 195.609375 C 223.925781 195.292969 222.554688 195.296875 223.625 194.523438 C 224.804688 193.660156 225.632812 192.636719 226.296875 191.398438 C 227.351562 191.460938 228.367188 191.429688 228.878906 190.257812 C 231.707031 189.675781 232.050781 189.804688 233.117188 192.035156 C 233.402344 192.632812 233.714844 193.296875 233.714844 193.929688 C 233.714844 195.742188 234.703125 196.261719 236.289062 196.226562 C 236.730469 196.214844 237.175781 196.332031 237.621094 196.394531 C 239.136719 197.207031 240.3125 196.242188 241.558594 195.644531 C 241.5625 195.640625 241.5625 195.640625 241.5625 195.640625 C 241.585938 196.320312 241.609375 196.996094 241.632812 197.667969 C 242.53125 197.320312 243.359375 196.871094 243.953125 196.082031 C 243.710938 195.175781 243.867188 194.34375 244.398438 193.574219 C 245.003906 192.695312 245.042969 191.734375 244.773438 190.734375 C 246.339844 190.25 247.800781 189.574219 248.941406 188.351562 C 250.53125 187.945312 252.035156 187.390625 253.160156 186.113281 C 254.1875 186.09375 254.269531 187.09375 254.75 187.636719 C 255.847656 188.886719 256.933594 189.046875 258.125 187.8125 C 260.171875 186.875 262.539062 186.59375 264.171875 184.816406 C 266.933594 184.167969 268.796875 182.03125 271.101562 180.625 C 272.300781 180.617188 272.941406 179.785156 273.582031 178.945312 C 274.613281 178.582031 275.644531 178.21875 276.675781 177.855469 C 279.691406 177.679688 281.414062 175.117188 283.882812 173.9375 C 284.628906 173.582031 285.238281 173.089844 284.894531 172.125 C 284.550781 171.167969 283.8125 170.71875 282.824219 170.796875 C 281.019531 170.945312 279.421875 171.742188 277.816406 172.503906 C 277.199219 172.792969 276.644531 173.519531 275.652344 172.980469 C 276.402344 172.222656 277.015625 171.597656 277.632812 170.976562 C 278.019531 169.878906 276.914062 167.796875 279.492188 168.136719 C 279.519531 169.042969 279.832031 169.707031 280.890625 169.535156 C 282.226562 169.320312 283.492188 168.84375 284.609375 168.085938 C 287.035156 166.453125 289.597656 165.152344 292.496094 164.597656 C 294.589844 164.683594 296.023438 163.5 297.328125 162.074219 C 298.257812 160.53125 300.285156 159.902344 300.738281 157.964844 C 300.75 157.238281 301.347656 156.472656 300.605469 155.792969 C 300.382812 155.855469 300.140625 155.863281 299.984375 155.984375 C 299.335938 156.488281 298.820312 157.914062 297.9375 157.121094 C 296.996094 156.277344 298.417969 155.742188 298.894531 155.117188 C 299.027344 154.945312 299.207031 154.792969 299.398438 154.679688 C 301.105469 153.644531 300.25 152.019531 300.105469 150.734375 C 299.953125 149.386719 298.4375 149.519531 297.390625 149.269531 " fill-opacity="1" fill-rule="nonzero"/></g></g></g></g></g></g><g clip-path="url(#c9c9f14353)"><path fill="#090e34" d="M 184.140625 300.6875 C 187.292969 302.9375 190.894531 303.839844 194.496094 303.839844 C 196.746094 303.839844 198.996094 303.390625 200.796875 302.488281 L 218.355469 295.734375 C 232.3125 290.332031 239.066406 274.574219 234.113281 260.617188 L 216.554688 213.34375 C 212.503906 202.988281 202.597656 195.785156 191.34375 195.785156 C 188.191406 195.785156 184.589844 196.238281 181.4375 197.585938 L 162.53125 204.789062 C 157.578125 206.589844 153.976562 210.644531 152.175781 215.597656 C 149.472656 214.246094 146.773438 213.34375 143.621094 213.34375 C 141.371094 213.34375 139.117188 213.796875 137.316406 214.695312 L 56.277344 246.210938 C 48.625 248.460938 1.800781 267.820312 0 337.15625 C 0 345.257812 4.953125 352.464844 12.605469 354.714844 C 14.40625 355.164062 16.207031 355.613281 18.007812 355.613281 C 23.863281 355.613281 29.714844 352.464844 33.316406 347.511719 C 39.167969 338.507812 56.726562 317.347656 76.988281 312.394531 L 91.84375 329.953125 C 95.445312 334.003906 100.398438 336.253906 105.351562 336.253906 C 107.601562 336.253906 109.855469 335.804688 111.65625 334.90625 L 113.003906 334.453125 L 134.617188 392.53125 L 94.546875 392.53125 C 89.144531 392.53125 83.742188 395.234375 80.140625 399.285156 C 76.539062 403.789062 75.636719 409.191406 76.988281 414.59375 L 85.992188 450.609375 C 87.34375 455.113281 90.042969 459.164062 94.097656 461.417969 L 121.558594 677.523438 C 122.910156 686.527344 130.5625 693.28125 139.570312 693.28125 L 436.714844 693.28125 C 445.71875 693.28125 453.371094 686.527344 454.722656 677.523438 L 482.1875 461.417969 C 486.238281 459.164062 488.941406 455.113281 490.289062 450.609375 L 499.296875 414.59375 C 500.644531 409.191406 499.296875 403.339844 496.144531 399.285156 C 492.542969 394.785156 487.589844 392.53125 481.738281 392.53125 L 473.183594 392.53125 L 481.285156 370.472656 C 483.085938 370.921875 485.339844 370.921875 487.140625 370.921875 C 500.195312 370.921875 511.902344 363.269531 516.402344 351.113281 L 524.507812 330.402344 C 526.308594 325.898438 526.308594 320.949219 524.058594 316.445312 C 521.804688 311.941406 518.65625 308.792969 514.152344 306.992188 C 514.152344 306.992188 513.703125 306.992188 513.703125 306.992188 C 513.703125 306.992188 513.25 306.992188 513.25 306.539062 C 513.25 306.539062 513.25 306.089844 513.25 306.089844 C 513.25 305.640625 514.152344 305.640625 514.152344 305.640625 C 514.152344 305.640625 514.152344 305.640625 514.601562 305.640625 C 514.601562 305.640625 515.054688 305.640625 515.054688 305.640625 C 517.304688 306.539062 519.105469 306.992188 521.355469 306.992188 C 528.558594 306.992188 535.3125 302.488281 538.015625 295.734375 L 572.679688 207.941406 C 577.183594 196.6875 576.734375 184.53125 571.78125 173.726562 C 566.828125 162.921875 557.824219 154.367188 546.566406 149.863281 L 521.355469 140.410156 C 515.953125 138.609375 510.550781 137.257812 505.148438 137.257812 C 486.238281 137.257812 470.03125 148.511719 462.828125 165.621094 L 428.160156 253.414062 C 424.558594 262.417969 429.0625 272.773438 438.066406 276.824219 C 438.515625 276.824219 438.964844 277.277344 438.515625 277.726562 C 438.515625 278.175781 437.613281 278.175781 437.613281 278.175781 C 437.613281 278.175781 437.164062 278.175781 437.164062 278.175781 C 435.363281 277.277344 433.113281 277.277344 431.3125 277.277344 C 424.109375 277.277344 417.355469 281.777344 414.652344 288.53125 L 406.550781 309.242188 C 403.398438 316.894531 403.847656 325.449219 407 333.105469 C 410.152344 340.308594 415.554688 345.710938 422.757812 348.863281 L 406.550781 392.53125 L 360.175781 392.53125 L 360.175781 257.464844 C 384.9375 243.058594 400.695312 216.945312 400.695312 188.582031 C 400.695312 159.769531 385.390625 134.105469 359.277344 119.25 C 356.574219 117.449219 353.421875 116.996094 350.273438 116.996094 C 347.121094 116.996094 343.96875 117.898438 341.265625 119.25 C 335.863281 122.398438 332.261719 128.253906 332.261719 135.007812 L 332.261719 175.527344 L 313.804688 184.082031 L 295.796875 175.527344 L 295.796875 136.355469 C 295.796875 130.054688 292.191406 123.75 286.339844 120.597656 C 283.640625 119.25 280.488281 118.347656 277.785156 118.347656 C 274.632812 118.347656 271.03125 119.25 268.332031 121.050781 C 244.019531 135.90625 229.613281 161.570312 229.613281 189.03125 C 229.613281 217.398438 245.371094 243.507812 270.132812 257.917969 L 270.132812 392.53125 L 208.902344 392.53125 L 177.835938 309.691406 C 180.988281 306.992188 183.238281 303.839844 184.140625 300.6875 Z M 436.714844 675.269531 L 139.570312 675.269531 L 112.554688 464.117188 L 463.726562 464.117188 Z M 424.109375 315.546875 L 432.210938 294.835938 C 434.464844 295.734375 436.714844 295.734375 438.515625 295.734375 C 446.167969 295.734375 453.371094 291.234375 456.523438 283.578125 C 460.125 274.125 455.625 263.320312 446.167969 259.265625 L 480.835938 171.472656 C 484.886719 160.667969 495.242188 154.367188 506.046875 154.367188 C 509.199219 154.367188 512.800781 154.816406 515.953125 156.167969 L 541.164062 165.621094 C 555.121094 171.023438 562.324219 186.332031 556.921875 200.289062 L 522.257812 288.082031 C 522.257812 288.082031 521.804688 288.082031 521.804688 288.082031 C 519.554688 287.179688 517.304688 286.730469 515.050781 286.730469 C 507.398438 286.730469 500.195312 291.234375 497.042969 298.886719 C 493.441406 308.339844 497.945312 319.597656 507.847656 323.199219 C 507.847656 323.199219 508.300781 323.199219 508.300781 323.199219 L 500.195312 343.910156 C 497.945312 349.3125 492.992188 352.464844 487.589844 352.464844 C 485.789062 352.464844 484.4375 352.011719 482.636719 351.5625 L 431.761719 332.203125 C 425.007812 329.953125 421.40625 322.296875 424.109375 315.546875 Z M 464.628906 364.617188 L 454.273438 392.53125 L 426.359375 392.53125 L 440.316406 355.613281 Z M 247.621094 188.582031 C 247.621094 166.523438 259.777344 147.164062 277.785156 135.90625 L 277.785156 186.78125 L 314.253906 203.890625 L 350.722656 186.78125 L 350.722656 135.007812 C 370.082031 146.261719 383.136719 166.070312 383.136719 188.582031 C 383.136719 214.246094 366.480469 236.757812 342.617188 246.210938 L 342.617188 392.082031 L 288.140625 392.082031 L 288.140625 246.660156 C 264.28125 236.757812 247.621094 214.695312 247.621094 188.582031 Z M 481.734375 410.089844 L 472.730469 446.109375 L 103.550781 446.109375 L 94.546875 410.089844 Z M 167.03125 294.835938 L 155.328125 300.6875 L 189.542969 392.082031 L 153.976562 392.082031 L 123.8125 310.59375 L 105.351562 317.796875 L 84.191406 293.035156 C 46.371094 293.933594 18.007812 337.605469 18.007812 337.605469 C 19.359375 276.375 62.128906 262.871094 62.128906 262.871094 L 143.621094 231.355469 L 159.828125 248.914062 L 171.082031 244.410156 L 168.832031 221.449219 L 187.742188 214.246094 C 188.640625 213.796875 189.992188 213.796875 190.894531 213.796875 C 194.496094 213.796875 198.097656 216.046875 199.449219 219.648438 L 217.007812 266.921875 C 218.808594 271.875 216.554688 276.824219 211.605469 278.625 L 194.046875 285.378906 L 180.089844 269.171875 L 166.582031 274.574219 Z M 167.03125 294.835938 " fill-opacity="1" fill-rule="nonzero"/></g><path fill="#ffffff" d="M 262.128906 602.667969 L 330.988281 567.035156 L 262.128906 531.105469 Z M 262.128906 602.667969 " fill-opacity="1" fill-rule="nonzero"/><g mask="url(#51b09449be)"><g transform="matrix(1, 0, 0, 1, 261, 530)"><g clip-path="url(#640011bc72)"><g clip-path="url(#65eb339c39)"><path fill="#420000" d="M 1.128906 1.105469 L 61.53125 41.417969 L 69.988281 37.035156 Z M 1.128906 1.105469 " fill-opacity="1" fill-rule="nonzero"/></g></g></g></g><g clip-path="url(#e7e2cccfb4)"><g clip-path="url(#ac62e73f9b)"><path fill="url(#b0e59b0a28)" d="M 161.035156 480.046875 L 161.035156 659.203125 L 415.765625 659.203125 L 415.765625 480.046875 Z M 161.035156 480.046875 " fill-rule="nonzero"/></g></g><g fill="#006666" fill-opacity="1"><g transform="translate(949.659201, 482.392429)"><g><path d="M 6.535156 -97.898438 L 37.15625 -109.246094 C 36.539062 -110.027344 35.675781 -110.558594 34.722656 -110.882812 C 33.820312 -111.0625 32.621094 -111.132812 31.273438 -111.152344 C 29.925781 -111.171875 28.035156 -110.828125 25.957031 -110.082031 C 23.785156 -109.132812 21.558594 -108.332031 19.332031 -107.53125 C 16.957031 -106.675781 14.824219 -106.078125 13.042969 -105.4375 L 6.511719 -103.085938 C 7.078125 -110.835938 7.710938 -117.933594 8.707031 -124.496094 C 9.09375 -127.148438 9.480469 -129.800781 10.015625 -132.507812 C 10.550781 -135.214844 11.191406 -137.625 11.738281 -139.832031 C 12.285156 -142.042969 12.992188 -143.804688 13.753906 -145.417969 C 14.566406 -146.886719 15.390625 -147.851562 16.28125 -148.171875 C 17.617188 -148.652344 18.574219 -148.328125 19.109375 -146.84375 C 19.640625 -145.359375 19.785156 -143.566406 19.832031 -141.570312 C 19.6875 -139.171875 19.503906 -136.421875 19.128906 -133.269531 L 20.242188 -132.5 C 21.742188 -136.726562 23.144531 -140.75 24.355469 -144.371094 C 25.28125 -147.386719 26.261719 -150.253906 26.945312 -153.015625 C 27.683594 -155.625 28.039062 -157.429688 27.828125 -158.023438 C 27.519531 -158.414062 26.765625 -158.648438 25.765625 -158.625 C 24.769531 -158.601562 23.675781 -158.375 22.53125 -158.300781 C 21.140625 -157.96875 19.605469 -157.582031 17.972656 -156.996094 L 18.089844 -152.007812 C 16.09375 -151.960938 14.300781 -151.820312 12.414062 -151.476562 C 10.875 -151.089844 9.09375 -150.449219 7.3125 -149.808594 C 5.585938 -149.019531 3.964844 -147.933594 2.652344 -146.457031 C 1.679688 -145.4375 0.863281 -143.96875 0.210938 -142.058594 C -0.59375 -140.09375 -1.339844 -137.980469 -1.984375 -135.570312 C -2.625 -133.160156 -3.214844 -130.601562 -3.695312 -127.746094 C -4.175781 -124.890625 -4.710938 -122.183594 -5.097656 -119.53125 C -6.09375 -112.972656 -6.925781 -105.964844 -7.601562 -98.515625 L -38.835938 -87.953125 C -33.570312 -86.828125 -28.792969 -85.195312 -24.351562 -83.105469 C -22.632812 -82.046875 -20.707031 -80.894531 -18.878906 -79.539062 C -17.050781 -78.1875 -15.414062 -76.429688 -13.925781 -74.617188 C -12.433594 -72.804688 -11.136719 -70.589844 -10.132812 -68.269531 C -9.28125 -65.894531 -8.667969 -63.265625 -8.300781 -60.378906 C -7.90625 -54.152344 -7.351562 -47.476562 -6.890625 -40.601562 C -6.429688 -33.726562 -5.832031 -27.40625 -5.394531 -21.527344 C -4.933594 -14.652344 -4.472656 -7.777344 -3.917969 -1.105469 C -2.304688 -0.34375 -0.648438 0.0664062 0.902344 0.179688 C 2.15625 0.398438 3.503906 0.417969 4.796875 0.285156 C 6.089844 0.15625 7.023438 -0.515625 7.742188 -1.777344 C 7.984375 -2.035156 7.949219 -3.53125 7.878906 -6.523438 C 7.863281 -9.367188 7.746094 -14.351562 7.53125 -21.480469 C 7.3125 -28.613281 7.183594 -38.289062 6.945312 -50.609375 C 6.707031 -62.925781 6.585938 -78.640625 6.535156 -97.898438 Z M -9.15625 -73.480469 C -9.746094 -75.113281 -10.980469 -76.683594 -12.914062 -78.332031 C -14.796875 -79.835938 -16.675781 -81.339844 -18.652344 -82.640625 C -21.035156 -84.128906 -23.5625 -85.566406 -26.238281 -86.953125 L -7.863281 -92.722656 C -8.121094 -88.773438 -8.238281 -85.378906 -8.371094 -82.480469 C -8.539062 -81.078125 -8.609375 -79.878906 -8.53125 -78.734375 C -8.605469 -77.535156 -8.730469 -76.484375 -8.757812 -75.636719 C -8.789062 -74.789062 -8.871094 -74.085938 -8.914062 -73.738281 C -9.105469 -73.332031 -9.050781 -73.183594 -9.15625 -73.480469 Z M -9.15625 -73.480469 "/></g></g></g><g fill="#006666" fill-opacity="1"><g transform="translate(990.626476, 467.660483)"><g><path d="M 21.339844 -92.160156 C 21.601562 -93.761719 21.023438 -94.894531 19.761719 -95.613281 C 18.550781 -96.183594 17.042969 -96.648438 15.34375 -96.707031 C 13.351562 -96.660156 10.910156 -96.453125 8.375 -96.046875 C 5.851562 -95.140625 3.542969 -93.636719 1.242188 -91.636719 C -0.703125 -89.597656 -2.789062 -87.003906 -4.902344 -83.558594 C -7.019531 -80.117188 -8.800781 -75.285156 -10.007812 -69.320312 C -10.914062 -65.308594 -11.453125 -60.753906 -11.742188 -55.957031 C -12.027344 -51.160156 -11.964844 -46.320312 -11.550781 -41.441406 C -11.136719 -36.5625 -10.277344 -31.84375 -9.121094 -27.230469 C -7.964844 -22.617188 -6.375 -18.660156 -4.5 -15.3125 C -2.574219 -11.816406 -0.265625 -9.125 2.476562 -7.09375 C 5.21875 -5.0625 8.183594 -4.285156 11.769531 -4.566406 C 15.207031 -4.796875 18.109375 -6.511719 20.574219 -9.914062 C 22.945312 -13.113281 24.792969 -17.296875 26.371094 -22.222656 C 27.804688 -27.097656 28.929688 -32.363281 29.691406 -38.167969 C 30.304688 -43.921875 30.824219 -49.472656 30.894531 -54.863281 C 31.023438 -60.105469 30.863281 -64.742188 30.417969 -68.769531 C 30.03125 -72.652344 29.367188 -75.433594 28.683594 -76.863281 C 27.851562 -78.242188 27.222656 -79.523438 26.605469 -80.308594 C 25.988281 -81.089844 25.777344 -81.683594 25.859375 -82.386719 C 25.941406 -83.085938 26.523438 -83.796875 27.550781 -84.671875 C 28.632812 -85.394531 30.644531 -86.789062 33.402344 -88.449219 C 36.0625 -89.910156 37.871094 -91.398438 38.984375 -92.972656 C 40.148438 -94.398438 40.664062 -95.753906 40.9375 -96.859375 C 41.15625 -98.113281 40.878906 -99.351562 40.15625 -100.433594 C 40.03125 -99.382812 39.554688 -98.375 38.730469 -97.40625 C 37.902344 -96.441406 36.78125 -95.367188 35.160156 -94.28125 C 33.59375 -93.046875 31.324219 -91.894531 28.207031 -90.773438 C 25.195312 -89.355469 23.078125 -88.257812 21.902344 -87.332031 C 20.777344 -86.257812 20.046875 -85.492188 19.816406 -84.738281 C 19.488281 -83.78125 19.757812 -83.039062 20.320312 -82.40625 C 21.449219 -81.132812 22.546875 -79.015625 23.558594 -76.195312 C 24.171875 -73.566406 24.75 -70.085938 25.355469 -65.609375 C 25.957031 -61.132812 26.097656 -55.148438 25.777344 -47.65625 C 25.453125 -40.164062 24.351562 -33.902344 22.71875 -29.125 C 21.136719 -24.195312 19.332031 -20.363281 17.5 -17.523438 C 15.238281 -14.027344 12.804688 -11.476562 10.195312 -9.867188 C 7.835938 -12.707031 5.949219 -16.554688 4.539062 -21.410156 C 3.246094 -25.472656 2.226562 -30.636719 1.574219 -37.109375 C 0.921875 -43.582031 1.289062 -51.421875 2.617188 -60.785156 C 3.15625 -65.335938 3.859375 -69.445312 4.679688 -72.757812 C 5.5 -76.070312 6.480469 -78.9375 7.472656 -81.304688 C 8.464844 -83.675781 9.46875 -85.542969 10.632812 -86.96875 C 11.648438 -88.339844 12.71875 -89.5625 13.746094 -90.433594 C 16.097656 -92.285156 18.578125 -92.84375 21.339844 -92.160156 Z M 21.339844 -92.160156 "/></g></g></g><g fill="#006666" fill-opacity="1"><g transform="translate(1041.538704, 449.352303)"><g><path d="M -12.0625 -67.574219 C -12.328125 -53.398438 -12.035156 -40.929688 -11.238281 -30.324219 C -10.933594 -25.738281 -10.53125 -21.359375 -9.882812 -17.230469 C -9.386719 -13.050781 -8.605469 -9.476562 -7.539062 -6.507812 C -6.617188 -3.488281 -5.519531 -1.367188 -4.097656 -0.203125 C -2.765625 1.164062 -1.070312 1.222656 0.796875 -0.117188 C 0.621094 -15.980469 1.578125 -30.574219 3.753906 -44.097656 C 4.570312 -49.753906 5.738281 -55.371094 7.347656 -61.144531 C 8.863281 -66.71875 10.78125 -72.101562 13.0625 -76.945312 C 15.34375 -81.789062 17.988281 -86.09375 21.195312 -89.761719 C 24.457031 -93.28125 28.183594 -95.960938 32.636719 -97.5625 C 33.824219 -97.992188 34.527344 -97.90625 34.835938 -97.515625 C 35.195312 -96.976562 35.355469 -96.53125 35.21875 -95.976562 C 34.988281 -95.222656 34.660156 -94.269531 34.1875 -93.257812 C 36.941406 -94.921875 38.699219 -96.558594 39.460938 -98.171875 C 39.796875 -98.628906 39.882812 -99.328125 39.667969 -99.921875 C 39.453125 -100.515625 39.09375 -101.058594 38.230469 -101.585938 C 37.425781 -101.964844 36.117188 -102.335938 34.3125 -102.691406 C 32.507812 -103.050781 30.261719 -103.246094 27.511719 -103.429688 C 23.523438 -103.335938 20.160156 -101.960938 17.28125 -99.25 C 14.253906 -96.484375 11.839844 -92.933594 9.695312 -88.644531 C 7.550781 -84.351562 5.769531 -79.519531 4.292969 -74.296875 C 2.820312 -69.070312 1.792969 -64.007812 1.058594 -59.050781 C 0.179688 -54.042969 -0.414062 -49.636719 -0.726562 -45.835938 C -0.984375 -41.890625 -1.113281 -38.992188 -1.027344 -37.347656 L 0.578125 -86.035156 C -1.417969 -85.988281 -3.414062 -85.941406 -5.152344 -85.648438 C -6.691406 -85.265625 -8.175781 -84.730469 -9.550781 -83.898438 C -11.078125 -83.015625 -12.09375 -81.644531 -12.503906 -79.988281 C -12.421875 -80.6875 -12.367188 -80.542969 -12.492188 -79.492188 C -12.617188 -78.441406 -12.835938 -77.1875 -13.046875 -75.4375 C -13.402344 -73.632812 -13.609375 -71.878906 -13.914062 -69.925781 C -14.21875 -67.972656 -14.480469 -66.371094 -14.402344 -65.226562 C -14.476562 -64.027344 -14.316406 -63.582031 -14.019531 -63.6875 C -13.722656 -63.792969 -13.152344 -65.003906 -12.0625 -67.574219 Z M -12.0625 -67.574219 "/></g></g></g></svg>